<?xml version="1.0" standalone="no"?>
<!DOCTYPE svg PUBLIC "-//W3C//DTD SVG 20010904//EN"
 "http://www.w3.org/TR/2001/REC-SVG-20010904/DTD/svg10.dtd">
<svg version="1.0" xmlns="http://www.w3.org/2000/svg"
 width="1024.000000pt" height="1024.000000pt" viewBox="0 0 1024.000000 1024.000000"
 preserveAspectRatio="xMidYMid meet">
<metadata>
Created by potrace 1.16, written by Peter Selinger 2001-2019
</metadata>
<g transform="translate(0.000000,1024.000000) scale(0.100000,-0.100000)"
fill="#000000" stroke="none">
<path d="M0 5365 l0 -4875 21 12 c30 19 52 -14 45 -67 -3 -22 -5 -59 -5 -82
-1 -41 -2 -43 -31 -43 l-30 0 0 -155 0 -155 5120 0 5120 0 0 5120 0 5120
-5120 0 -5120 0 0 -4875z m7305 4151 c31 -85 87 -134 200 -177 30 -11 30 -11
-42 -36 -45 -15 -84 -36 -104 -56 -30 -31 -69 -105 -69 -132 0 -35 -20 -20
-36 27 -29 87 -106 149 -217 173 -28 6 -29 25 0 25 26 0 116 49 150 82 18 17
45 60 60 94 15 35 30 60 34 56 3 -4 14 -29 24 -56z m-5361 -48 c40 -113 88
-161 199 -200 37 -12 67 -25 67 -28 0 -3 -28 -14 -61 -24 -109 -34 -180 -110
-210 -223 -12 -46 -29 -58 -29 -20 0 35 -54 139 -91 174 -35 33 -100 65 -157
78 -18 3 -32 10 -32 14 0 4 24 15 53 24 114 36 188 108 217 212 7 25 15 45 19
45 3 0 15 -23 25 -52z m3516 -26 c204 -55 353 -140 497 -282 209 -207 336
-515 288 -699 -25 -98 -30 -222 -12 -316 29 -154 74 -240 206 -395 40 -47 81
-101 91 -121 30 -57 40 -149 33 -292 l-6 -130 -46 -44 c-50 -48 -140 -96 -211
-112 -29 -7 -414 -11 -1105 -11 -1167 0 -1116 -3 -1237 62 -125 66 -200 185
-206 325 -10 219 131 380 364 414 89 14 114 29 114 70 0 46 -35 62 -125 57
-65 -3 -74 -1 -69 12 32 75 47 147 51 252 l6 116 38 18 c22 9 43 22 48 28 4 6
5 45 0 86 -45 435 310 861 812 975 94 22 368 14 469 -13z m1069 -147 c83 -42
53 -165 -40 -165 -84 0 -120 90 -60 151 33 32 58 36 100 14z m-2590 -31 c30
-38 28 -89 -5 -119 -69 -64 -173 3 -144 91 14 42 33 53 87 54 33 0 46 -5 62
-26z m4965 -412 c50 -98 143 -167 279 -207 31 -9 57 -18 57 -20 0 -3 -26 -12
-57 -21 -210 -61 -284 -147 -350 -404 -9 -34 -9 -33 -31 50 -55 207 -135 297
-307 345 -33 9 -67 19 -75 21 -8 3 24 20 71 39 48 18 104 44 126 58 84 53 141
141 178 273 9 33 19 66 22 74 3 8 17 -23 32 -70 15 -47 40 -109 55 -138z
m-5372 1 c135 -40 253 -126 337 -248 79 -113 116 -300 88 -439 -28 -137 -78
-225 -204 -358 -74 -77 -117 -162 -136 -264 l-12 -69 -93 -3 -92 -3 0 218 1
218 94 78 c82 67 95 81 95 108 0 47 -16 69 -51 69 -25 0 -49 -16 -116 -77
l-84 -76 -47 44 c-90 86 -122 109 -152 109 -36 0 -65 -38 -56 -74 3 -14 47
-59 101 -106 l95 -81 -2 -212 -3 -212 -89 0 -90 0 -12 71 c-16 98 -60 175
-161 286 -61 67 -95 115 -123 173 -174 365 47 793 448 865 62 12 199 3 264
-17z m3566 6 c119 -30 238 -104 322 -203 154 -183 184 -456 74 -666 -19 -37
-73 -109 -120 -161 -96 -106 -139 -182 -160 -278 -7 -36 -14 -69 -14 -73 0 -5
-40 -8 -90 -8 l-90 0 0 218 0 217 81 65 c121 96 140 130 102 172 -32 36 -67
23 -157 -58 l-86 -76 -85 76 c-96 85 -131 97 -161 51 -27 -41 -11 -68 91 -156
l95 -81 -2 -212 -3 -211 -95 0 c-94 0 -95 0 -98 25 -13 130 -55 215 -171 344
-83 93 -138 184 -162 271 -18 65 -18 245 0 310 92 326 406 513 729 434z
m-5710 -263 c20 -44 68 -88 111 -101 23 -7 21 -9 -25 -31 -50 -24 -94 -79 -94
-118 0 -9 -4 -16 -10 -16 -5 0 -10 7 -10 16 0 9 -10 33 -21 54 -20 35 -52 58
-104 75 -17 6 -15 9 20 27 57 29 84 56 97 100 6 21 12 38 14 38 2 0 12 -20 22
-44z m911 -71 c36 -18 55 -64 48 -112 -9 -55 -38 -78 -96 -78 -57 0 -84 19
-101 71 -10 28 -8 40 7 71 28 59 85 78 142 48z m5810 0 c42 -21 65 -77 51
-120 -15 -45 -54 -75 -97 -75 -45 0 -69 14 -88 50 -50 98 39 195 134 145z
m-6049 -406 c119 -27 274 -141 335 -245 117 -200 91 -458 -63 -626 -144 -155
-329 -212 -538 -163 -190 43 -351 218 -384 417 -15 85 -8 193 15 263 56 164
204 306 366 349 63 17 205 20 269 5z m6411 -7 c195 -54 349 -230 381 -435 44
-283 -165 -564 -451 -607 -271 -40 -537 134 -612 400 -18 66 -16 204 5 275 51
173 204 323 377 369 78 21 220 20 300 -2z m690 -691 c18 -14 24 -29 24 -61 0
-32 -6 -47 -24 -61 -53 -43 -131 -7 -131 61 0 68 78 104 131 61z m-5567 -87
c19 -18 21 -45 4 -62 -9 -9 -76 -12 -240 -12 -214 0 -228 1 -238 19 -14 27
-13 37 6 55 13 14 49 16 234 16 185 0 221 -2 234 -16z m3590 0 c19 -18 21 -45
4 -62 -9 -9 -76 -12 -238 -12 -162 0 -229 3 -238 12 -20 20 -14 58 11 68 12 5
117 9 234 9 180 1 214 -1 227 -15z m-4433 -194 c46 -152 61 -376 38 -547 l-12
-81 -86 -6 c-47 -4 -147 -17 -221 -30 -74 -13 -136 -22 -138 -21 -1 1 36 81
83 178 47 97 85 187 85 201 0 32 -22 48 -62 44 -32 -3 -36 -8 -113 -163 -44
-88 -94 -191 -110 -228 -30 -67 -31 -69 -105 -104 -93 -45 -170 -121 -194
-189 -9 -28 -16 -83 -17 -133 -1 -69 -3 -79 -9 -51 -29 120 -19 367 21 510 83
300 343 544 694 651 121 37 126 36 146 -31z m4944 13 c184 -64 300 -134 428
-261 127 -124 218 -287 258 -460 29 -126 36 -332 15 -452 -9 -52 -20 -98 -24
-102 -4 -4 -7 57 -7 135 0 133 -2 146 -26 197 -41 85 -117 152 -217 190 -42
16 -43 18 -148 231 -58 118 -113 222 -121 232 -9 10 -30 17 -50 17 -26 0 -36
-6 -45 -25 -10 -23 -3 -44 77 -205 49 -99 86 -183 82 -186 -3 -3 -46 1 -94 10
-48 9 -146 21 -218 27 -71 6 -132 13 -134 15 -12 11 -30 171 -30 264 -1 119
16 241 49 348 l22 73 42 -7 c22 -3 86 -22 141 -41z m-4104 -13 c23 -13 25 -43
3 -64 -13 -14 -49 -16 -234 -16 -215 0 -219 0 -234 22 -20 28 -20 33 0 52 13
14 48 16 230 16 129 0 223 -4 235 -10z m3590 0 c23 -13 24 -37 2 -62 -15 -16
-36 -18 -233 -18 -204 0 -218 1 -235 20 -15 17 -16 24 -7 45 l12 25 220 0
c134 0 229 -4 241 -10z m-5998 -91 c203 -50 326 -118 423 -230 58 -66 100
-136 126 -209 22 -62 23 -75 20 -305 -3 -216 -2 -250 17 -327 23 -100 61 -197
96 -250 l25 -38 0 -271 c0 -237 -2 -270 -15 -265 -26 10 -127 77 -173 115 -47
39 -185 214 -276 353 l-58 87 76 85 c100 112 99 133 -4 274 -93 130 -165 172
-287 172 l-64 0 -25 54 c-14 30 -36 99 -51 153 -34 132 -37 319 -5 435 27 95
67 188 82 188 7 0 48 -9 93 -21z m8114 -65 c37 -91 63 -204 63 -269 l0 -44
-31 11 c-45 15 -107 4 -138 -26 -26 -25 -33 -26 -132 -26 -119 0 -149 -12
-149 -59 0 -49 22 -58 166 -65 128 -6 132 -5 168 19 43 29 48 30 88 9 28 -15
30 -18 24 -57 -10 -59 -41 -158 -66 -206 -20 -40 -21 -40 -64 -35 -91 13 -144
-23 -241 -160 -36 -50 -119 -167 -185 -261 -152 -213 -208 -297 -210 -315 -6
-39 4 -61 51 -119 l50 -63 -40 -51 c-22 -29 -61 -69 -86 -90 -50 -42 -169
-117 -185 -117 -6 0 -10 92 -10 267 0 216 3 269 14 282 32 36 99 189 122 278
33 130 39 253 24 439 -16 183 -9 240 45 349 88 180 242 294 476 354 214 56
205 57 246 -45z m-3772 -184 c296 -40 469 -111 506 -208 5 -13 9 -160 9 -326
l0 -303 -81 23 c-165 48 -503 84 -788 84 -315 0 -715 -49 -853 -105 -17 -7
-18 11 -18 294 0 343 0 344 80 405 94 72 274 120 550 146 116 11 486 5 595
-10z m-2120 -30 c13 -26 14 -34 1 -64 -28 -68 -117 -50 -124 26 -4 46 18 68
68 68 34 0 42 -4 55 -30z m3607 13 c24 -22 23 -75 -2 -98 -63 -57 -153 23
-104 93 19 27 78 30 106 5z m-3162 -43 c24 -24 26 -67 4 -98 -11 -16 -25 -22
-54 -22 -70 0 -100 70 -53 123 22 23 78 22 103 -3z m-595 -380 c269 -18 498
-58 605 -106 81 -36 92 -62 88 -197 -2 -84 -6 -102 -18 -100 -8 1 -55 10 -105
22 -49 11 -166 30 -260 42 -151 21 -213 23 -560 24 -257 0 -431 -4 -510 -13
-141 -15 -345 -48 -416 -66 l-49 -13 0 89 c0 120 27 166 125 217 164 84 656
130 1100 101z m4330 0 c183 -13 267 -25 395 -56 126 -31 190 -64 225 -115 23
-33 28 -51 32 -140 6 -98 5 -102 -13 -95 -243 96 -1042 126 -1554 60 -112 -14
-293 -48 -324 -60 -14 -5 -16 9 -16 116 0 120 0 122 28 150 102 101 744 175
1227 140z m-6345 -265 c30 -15 112 -109 132 -152 10 -20 5 -30 -42 -84 -61
-70 -90 -122 -90 -159 0 -37 34 -89 233 -366 100 -141 102 -148 67 -293 -30
-125 -89 -229 -185 -326 -92 -93 -164 -135 -282 -161 -95 -21 -243 -15 -324
13 -168 58 -327 217 -402 405 -78 197 -76 457 6 646 115 268 347 448 632 492
82 12 217 5 255 -15z m8306 -16 c144 -50 279 -157 366 -294 92 -144 118 -228
125 -405 5 -130 -11 -237 -52 -333 l-15 -37 -49 57 c-153 185 -317 269 -541
280 -95 4 -130 2 -200 -15 -106 -26 -199 -67 -270 -121 -30 -22 -59 -41 -65
-41 -7 0 -22 11 -34 24 l-23 25 21 44 c11 24 21 49 21 56 0 22 -31 73 -72 117
l-40 44 84 117 c47 65 131 185 188 268 112 160 162 222 195 236 11 5 81 7 155
5 110 -3 148 -8 206 -27z m-4031 -130 c226 -20 400 -53 483 -91 l42 -20 0
-103 0 -103 -47 14 c-129 39 -436 77 -713 89 -294 13 -810 -41 -962 -100 -16
-7 -18 1 -18 85 0 50 4 99 10 109 24 46 237 95 520 121 225 20 457 19 685 -1z
m-2225 -9 c360 -25 610 -72 645 -123 15 -22 19 -85 9 -148 l-6 -36 -66 19
c-77 21 -288 51 -482 69 -197 18 -659 16 -865 -4 -184 -18 -398 -51 -457 -72
l-38 -13 0 94 c0 87 2 95 23 109 124 81 777 136 1237 105z m4315 0 c219 -15
337 -29 457 -56 174 -38 182 -47 176 -179 -2 -61 -4 -66 -23 -62 -366 90 -864
116 -1378 72 -163 -14 -380 -46 -449 -66 -59 -17 -59 -17 -56 84 l3 92 35 17
c72 35 352 81 600 97 181 12 462 12 635 1z m-4110 -334 c259 -31 426 -71 445
-106 10 -19 15 -532 5 -542 -3 -3 -31 1 -63 8 -71 16 -335 50 -507 65 -194 16
-638 13 -855 -6 -166 -14 -441 -54 -480 -69 -13 -6 -15 28 -12 272 l3 278 27
16 c64 37 292 75 612 102 106 9 711 -4 825 -18z m1970 14 c257 -22 461 -58
541 -96 l34 -16 0 -864 c0 -531 -4 -864 -9 -864 -6 0 -38 7 -73 14 -92 22
-342 54 -503 66 -336 24 -783 -4 -1043 -66 -57 -13 -105 -24 -108 -24 -2 0 -4
387 -4 860 l0 859 22 20 c43 41 261 85 543 110 132 12 462 12 600 1z m2355
-15 c237 -29 391 -69 411 -106 15 -28 11 -539 -4 -539 -7 0 -30 5 -52 10 -216
52 -743 85 -1095 70 -296 -13 -658 -55 -732 -85 -17 -7 -18 10 -18 269 l0 276
32 20 c18 11 62 26 98 34 86 20 329 54 460 65 167 15 742 6 900 -14z m1644
-390 c208 -44 383 -215 432 -421 22 -93 14 -245 -16 -331 -43 -122 -129 -231
-242 -303 -93 -60 -159 -82 -270 -88 -180 -9 -304 34 -421 147 -126 121 -186
245 -195 401 -9 173 40 302 162 423 149 150 353 214 550 172z m-6019 -295
c145 -15 351 -48 415 -66 100 -29 90 90 90 -1061 0 -557 -1 -1013 -2 -1013 -2
0 -39 7 -83 16 -303 58 -920 78 -1380 43 -163 -12 -357 -37 -413 -54 l-42 -13
2 1026 3 1027 35 17 c64 31 295 67 560 88 143 11 681 5 815 -10z m4330 0 c154
-15 381 -57 423 -79 l35 -18 4 -1022 c5 -990 4 -1023 -14 -1017 -148 43 -752
83 -1103 71 -339 -10 -684 -44 -764 -74 l-26 -11 2 1022 3 1021 25 18 c47 35
295 77 585 98 150 12 683 6 830 -9z m-6282 -595 c132 -23 290 -70 365 -109
l32 -17 0 -284 0 -285 -99 0 -99 0 -11 46 c-27 106 -98 196 -190 241 -48 24
-68 28 -141 28 -74 0 -92 -4 -144 -30 -65 -33 -124 -94 -158 -163 -27 -55 -36
-166 -19 -229 26 -97 129 -199 229 -229 l52 -15 0 -204 0 -204 26 -20 c25 -20
39 -21 290 -21 l264 0 0 -198 0 -199 -99 -18 -100 -18 -63 23 c-160 58 -302
154 -464 315 -246 244 -442 566 -566 925 -43 127 -79 276 -85 355 -5 66 -4 72
22 103 30 36 185 116 295 153 36 12 115 32 175 45 135 28 355 32 488 9z m-60
-509 c18 -8 49 -30 69 -50 106 -105 84 -278 -44 -344 -160 -82 -356 64 -317
236 16 71 45 109 111 147 50 29 129 33 181 11z m4227 -80 c151 -20 292 -50
343 -72 l37 -17 0 -437 0 -437 -85 18 c-206 43 -362 53 -770 54 -412 0 -561
-11 -775 -55 -52 -11 -98 -20 -102 -20 -5 0 -8 193 -8 429 l0 430 28 20 c50
35 228 72 462 97 175 18 703 12 870 -10z m3520 -24 c203 -54 437 -170 471
-234 27 -49 -20 -180 -128 -358 -198 -327 -573 -636 -855 -706 -62 -15 -69
-15 -177 7 l-112 24 -2 230 -2 230 102 3 102 3 45 -35 c154 -117 363 -70 448
103 34 68 32 178 -4 246 -98 188 -333 219 -472 64 -51 -57 -76 -121 -76 -196
l0 -53 -75 0 -75 0 0 320 0 319 38 11 c38 10 203 45 257 54 17 2 113 3 215 1
169 -2 195 -5 300 -33z m-7292 -484 l-3 -273 -230 0 -230 0 -3 160 -2 160 70
33 c81 38 139 91 166 151 l18 41 108 0 108 0 -2 -272z m1712 -502 c163 -19
284 -42 322 -62 28 -14 28 -16 28 -104 0 -49 -4 -91 -8 -94 -4 -2 -39 2 -77
10 -397 83 -1060 98 -1510 34 -175 -25 -280 -41 -301 -46 -24 -6 -24 -6 -24
90 0 94 0 96 28 109 57 29 296 64 552 81 150 10 862 -3 990 -18z m2062 0 c165
-18 321 -49 354 -71 24 -15 24 -18 24 -164 l0 -148 -67 -33 c-37 -18 -128 -74
-203 -123 -105 -70 -161 -116 -252 -208 l-117 -118 -224 -1 -223 -1 -125 123
c-143 141 -233 208 -406 303 l-123 67 0 143 0 143 34 16 c73 35 283 68 536 85
179 13 621 5 792 -13z m2056 14 c199 -14 428 -47 480 -70 l42 -19 0 -90 c0
-50 -4 -91 -9 -91 -4 0 -31 4 -59 10 -216 41 -586 70 -887 70 -343 0 -682 -35
-932 -97 -23 -5 -23 -4 -23 89 0 80 3 98 19 112 33 30 312 75 561 89 139 8
676 6 808 -3z m-4377 -330 c667 -52 1097 -214 1407 -531 108 -111 172 -200
237 -330 l53 -106 129 1 c70 1 133 5 140 9 6 4 35 51 63 104 70 130 114 194
200 286 351 376 855 555 1615 574 424 11 702 -19 1445 -156 244 -45 266 -51
285 -75 23 -29 370 -804 363 -811 -2 -2 -62 5 -134 16 -326 50 -528 79 -551
79 -22 0 -23 -3 -17 -37 11 -65 26 -87 64 -95 19 -4 139 -24 265 -43 127 -20
295 -48 375 -61 80 -14 172 -30 204 -35 33 -6 72 -17 87 -26 53 -31 65 -103
25 -150 -33 -38 -54 -36 -406 25 -482 85 -879 137 -1350 177 -689 59 -1387 2
-1863 -152 -179 -57 -228 -83 -306 -163 -120 -122 -271 -175 -496 -175 -230 0
-392 56 -516 179 -71 70 -114 93 -279 150 -358 125 -946 197 -1485 183 -512
-14 -1108 -84 -1930 -226 -93 -16 -183 -27 -198 -24 -34 7 -67 54 -67 95 0 16
12 41 28 59 26 29 38 32 207 64 169 31 546 93 715 116 41 6 78 14 81 17 11 12
29 74 29 98 0 18 -6 24 -22 24 -12 0 -174 -23 -361 -50 -187 -28 -341 -49
-343 -47 -3 3 44 112 133 307 12 25 50 110 86 190 122 272 148 321 181 336 55
25 776 152 1011 179 310 35 644 44 896 25z m-3061 -2025 c0 -9 -13 -42 -30
-75 -36 -71 -37 -78 -7 -89 55 -21 102 47 58 85 -18 15 -17 17 6 40 l25 25 23
-23 c16 -15 20 -26 14 -34 -6 -7 -6 -22 1 -40 9 -22 8 -38 -5 -71 -29 -75
-121 -108 -178 -63 -14 11 -30 20 -35 20 -5 0 -12 12 -15 26 -3 19 2 33 17 48
12 12 37 48 56 81 18 33 38 66 43 73 13 17 27 15 27 -3z"/>
<path d="M5174 9272 c-23 -15 -29 -50 -29 -158 0 -125 12 -154 65 -154 51 0
60 23 60 162 0 108 -2 127 -18 141 -19 18 -59 22 -78 9z"/>
<path d="M4358 8863 c-21 -25 -26 -45 -18 -68 11 -29 200 -155 232 -155 28 0
58 32 58 61 0 32 -192 179 -233 179 -13 0 -31 -8 -39 -17z"/>
<path d="M5910 8820 c-124 -88 -143 -117 -100 -160 29 -29 54 -25 123 21 146
98 167 126 131 177 -25 37 -61 28 -154 -38z"/>
<path d="M5115 8824 c-208 -44 -332 -133 -423 -304 -104 -196 -91 -407 38
-604 68 -104 80 -146 80 -274 0 -135 11 -177 53 -202 18 -11 39 -20 48 -20 9
0 24 -21 38 -55 27 -64 77 -109 148 -130 94 -29 215 -13 289 37 33 23 84 102
84 131 0 9 13 17 34 21 20 4 45 19 59 35 22 27 25 40 29 168 6 156 10 170 86
286 114 174 140 350 78 527 -45 129 -165 269 -281 328 -99 49 -266 75 -360 56z
m181 -125 c83 -15 183 -71 244 -135 93 -99 137 -237 118 -376 -10 -75 -33
-127 -101 -231 -53 -79 -68 -113 -85 -187 l-8 -35 -262 -3 -261 -2 -6 37 c-12
70 -25 100 -86 194 -70 109 -99 194 -99 288 1 217 139 395 346 445 73 18 124
19 200 5z m162 -1094 c8 -3 12 -16 10 -32 l-3 -28 -262 -3 -263 -2 0 35 0 34
118 3 c138 4 381 -1 400 -7z m-130 -205 c-5 -22 -76 -53 -128 -54 -55 -1 -104
18 -125 50 l-15 24 135 -2 c116 -2 135 -4 133 -18z"/>
<path d="M4221 8273 c-23 -28 -20 -55 7 -83 12 -11 38 -15 110 -15 87 0 95 2
113 24 23 28 24 49 3 79 -14 20 -23 22 -114 22 -95 0 -99 -1 -119 -27z"/>
<path d="M5957 8282 c-25 -28 -21 -67 9 -91 21 -17 41 -21 99 -21 85 0 125 22
125 69 0 49 -26 61 -127 61 -74 0 -93 -3 -106 -18z"/>
<path d="M4405 7822 c-98 -71 -121 -93 -123 -116 -4 -35 23 -66 57 -66 15 0
47 15 73 33 25 17 68 47 94 66 102 71 121 102 90 143 -7 10 -26 20 -42 23 -25
5 -47 -8 -149 -83z"/>
<path d="M5821 7884 c-41 -52 -33 -63 124 -173 111 -79 144 -87 171 -46 25 39
5 72 -83 135 -175 126 -178 127 -212 84z"/>
<path d="M1704 7887 c-12 -7 -14 -53 -14 -275 0 -195 3 -271 12 -280 18 -18
461 -17 477 1 15 18 16 536 1 551 -12 12 -453 15 -476 3z m290 -94 l107 -6 -3
-31 -3 -31 -157 -3 -158 -3 0 34 c0 19 3 37 7 40 8 9 71 9 207 0z m96 -258 l0
-115 -154 0 c-142 0 -154 1 -151 18 2 9 4 61 4 115 l1 97 150 0 150 0 0 -115z"/>
<path d="M8292 7878 c-7 -7 -12 -24 -12 -40 0 -31 23 -48 65 -48 15 0 25 -4
23 -8 -1 -5 -59 -58 -128 -119 -111 -99 -127 -110 -141 -97 -36 33 -99 4 -99
-46 0 -25 140 -175 198 -211 30 -19 34 -20 57 -5 44 29 42 53 -9 105 -25 26
-46 51 -45 56 0 6 35 40 77 78 42 37 104 92 137 122 56 51 84 62 70 27 -3 -9
-3 -40 1 -69 5 -46 11 -56 36 -69 30 -15 47 -10 70 21 13 18 9 290 -4 303 -8
8 -56 12 -148 12 -92 0 -140 -4 -148 -12z"/>
<path d="M852 5824 c-49 -25 -72 -60 -72 -110 0 -54 15 -88 46 -105 23 -12 24
-17 24 -116 l0 -103 -57 -37 c-32 -21 -75 -50 -95 -66 l-38 -29 0 -183 0 -183
93 -60 c137 -89 155 -96 186 -82 14 6 70 41 124 76 l97 65 2 117 c1 64 3 137
4 161 2 90 0 93 -145 184 l-61 38 0 99 c0 96 1 100 30 132 53 58 50 126 -9
182 -36 34 -86 42 -129 20z m156 -578 l63 -38 -3 -131 -3 -131 -76 -47 -76
-47 -74 45 c-40 24 -77 50 -81 56 -13 20 -9 220 5 245 6 12 41 42 77 67 57 39
67 43 85 31 11 -7 48 -29 83 -50z"/>
<path d="M9389 5820 c-93 -17 -153 -92 -154 -190 0 -68 25 -113 84 -155 36
-26 52 -30 105 -30 53 0 69 5 104 29 176 122 70 385 -139 346z m91 -131 c35
-29 33 -84 -4 -115 -32 -28 -63 -30 -92 -6 -22 17 -44 53 -44 71 0 5 12 23 26
40 31 37 76 41 114 10z"/>
<path d="M5110 5264 c-57 -25 -107 -81 -121 -136 l-13 -48 -48 0 c-85 0 -171
-63 -198 -145 -28 -83 10 -188 84 -237 l33 -22 -41 -30 c-159 -120 -78 -379
119 -381 l51 0 12 -50 c33 -136 174 -202 299 -140 60 30 98 76 115 138 11 44
12 45 61 51 120 16 207 106 207 214 0 55 -45 138 -91 169 l-39 25 39 28 c43
32 91 118 91 164 0 118 -95 216 -208 216 l-50 0 -12 47 c-28 115 -178 185
-290 137z m148 -110 c13 -9 30 -31 38 -51 14 -33 14 -37 -13 -81 -15 -26 -35
-64 -46 -85 -13 -27 -23 -37 -33 -33 -9 3 -22 6 -30 6 -7 0 -20 15 -27 33 -8
17 -26 50 -41 71 -39 58 -26 107 39 148 33 21 73 18 113 -8z m-257 -197 c19
-12 42 -38 53 -57 l19 -35 -30 -32 c-17 -18 -36 -45 -42 -62 l-13 -29 -51 15
c-98 28 -139 106 -90 171 41 55 99 66 154 29z m497 9 c42 -22 62 -50 64 -89 2
-45 -22 -82 -70 -105 -64 -33 -90 -35 -97 -11 -4 12 -25 41 -46 64 l-38 41 25
38 c46 68 106 91 162 62z m-244 -197 c56 -44 67 -107 30 -165 -58 -88 -204
-34 -204 76 0 86 108 141 174 89z m-259 -189 c8 -16 31 -45 50 -64 l34 -34
-26 -40 c-14 -21 -38 -47 -53 -56 -88 -51 -200 27 -170 119 13 38 33 58 86 85
53 26 61 25 79 -10z m498 -2 c51 -25 77 -69 67 -111 -12 -51 -19 -62 -49 -80
-62 -36 -129 -16 -172 52 l-28 45 35 39 c19 21 40 49 46 62 13 28 35 26 101
-7z m-257 -164 c4 -14 22 -48 41 -75 31 -46 33 -53 23 -84 -17 -52 -47 -84
-86 -91 -99 -18 -164 93 -103 177 14 19 32 49 39 67 11 27 17 32 46 32 28 0
35 -4 40 -26z"/>
<path d="M9163 5001 c-32 -27 -80 -69 -106 -93 l-49 -43 1 -245 c1 -236 2
-246 22 -262 19 -16 49 -18 303 -18 239 0 285 2 304 16 22 15 22 18 22 283 0
194 -3 270 -12 279 -8 8 -52 12 -132 12 l-119 0 -63 60 c-78 75 -94 76 -171
11z m161 -141 c38 -29 42 -30 143 -30 79 0 104 -3 101 -12 -4 -10 -62 -14
-239 -15 l-234 -3 74 71 74 71 21 -26 c12 -14 38 -39 60 -56z m238 -275 l-3
-145 -230 0 -229 0 0 145 0 145 233 0 232 0 -3 -145z"/>
<path d="M2864 4545 c-70 -35 -132 -121 -134 -186 0 -12 -14 -17 -58 -22 -110
-9 -188 -72 -218 -173 -25 -88 0 -178 68 -241 39 -37 114 -65 165 -62 44 3 46
2 82 -51 105 -158 320 -146 424 23 15 23 24 27 66 27 36 0 66 9 112 33 57 29
67 39 97 97 30 58 33 71 29 123 -11 124 -118 227 -237 227 -24 0 -42 5 -44 13
-2 6 -9 31 -15 55 -36 131 -208 201 -337 137z m160 -89 c60 -25 97 -99 81
-163 -3 -15 -23 -44 -44 -65 -35 -34 -44 -38 -89 -38 -43 0 -57 5 -86 30 -66
59 -70 143 -9 205 47 46 89 55 147 31z m298 -238 c22 -13 46 -35 54 -50 18
-35 18 -102 -1 -138 -30 -58 -119 -79 -168 -40 -29 23 -67 96 -67 129 0 53 69
120 124 121 10 0 36 -10 58 -22z m-587 4 c30 -22 65 -77 65 -103 0 -37 -35
-108 -64 -131 -27 -22 -90 -23 -126 -2 -45 27 -64 72 -61 143 1 13 18 41 40
62 34 35 44 39 87 39 27 0 54 -4 59 -8z m295 -152 c32 -17 72 -96 72 -140 -2
-96 -108 -153 -200 -106 -79 41 -82 154 -5 231 20 19 36 25 70 25 24 0 53 -5
63 -10z"/>
<path d="M2450 3301 l0 -151 30 0 c29 0 30 1 30 50 0 33 4 50 13 50 21 0 33
-13 56 -57 18 -36 26 -43 51 -43 37 0 37 9 4 66 l-26 44 26 31 c34 40 34 88 2
126 -22 25 -31 28 -105 31 l-81 4 0 -151z"/>
<path d="M2690 3300 l0 -150 100 0 100 0 0 30 0 30 -70 0 -70 0 0 35 0 35 60
0 c57 0 60 1 60 25 0 22 -4 24 -57 27 -54 3 -58 5 -58 28 0 24 4 25 65 30 62
5 65 6 68 33 l3 27 -100 0 -101 0 0 -150z"/>
<path d="M2920 3301 l0 -151 65 0 c112 0 173 42 182 124 7 57 -17 123 -54 150
-20 15 -49 21 -110 24 l-83 5 0 -152z m152 69 c64 -50 26 -160 -55 -160 -24 0
-26 4 -32 75 -4 41 -5 81 -1 90 8 21 58 19 88 -5z"/>
<path d="M3208 3378 c-4 -148 -3 -220 5 -225 5 -3 19 -2 33 1 l24 6 0 145 0
145 -30 0 -30 0 -2 -72z"/>
<path d="M3338 3430 c-30 -23 -40 -62 -26 -101 7 -20 23 -33 64 -49 60 -25 67
-31 58 -54 -8 -21 -33 -24 -78 -9 -43 14 -60 7 -54 -23 4 -25 45 -44 95 -44
59 0 103 38 103 89 0 44 -24 71 -87 96 -31 12 -43 23 -43 37 0 19 5 20 48 15
41 -5 50 -3 61 15 14 22 14 21 -16 37 -34 18 -97 13 -125 -9z"/>
<path d="M7285 4681 c-95 -23 -152 -121 -125 -217 14 -49 18 -42 -95 -167
l-53 -58 -41 10 c-150 33 -264 -132 -178 -260 41 -61 123 -88 197 -66 21 7 36
-1 93 -44 61 -47 67 -55 67 -88 1 -53 33 -117 72 -141 51 -31 92 -35 150 -14
70 26 110 76 116 146 5 50 8 55 63 101 59 47 60 48 101 36 23 -6 55 -8 72 -5
76 16 146 96 146 168 -1 48 -33 112 -71 139 -28 20 -47 24 -107 25 l-74 1 -74
84 c-62 70 -74 88 -68 109 22 93 17 133 -22 180 -44 51 -110 75 -169 61z m93
-343 c7 -13 17 -31 24 -40 11 -15 6 -24 -35 -62 l-48 -44 -27 27 c-15 15 -38
34 -51 44 l-25 17 22 23 c12 13 22 28 22 35 0 6 21 13 48 15 26 2 50 4 53 5 3
1 11 -8 17 -20z"/>
<path d="M6567 3443 c-6 -12 -7 -255 -1 -275 3 -11 15 -18 29 -18 21 0 24 5
30 69 4 39 4 75 0 80 -3 6 -2 11 2 11 5 0 23 -27 41 -60 19 -33 37 -60 41 -60
4 0 25 27 47 60 l39 60 3 -58 c4 -88 9 -102 37 -102 l25 0 0 150 0 150 -29 0
c-19 0 -32 -6 -35 -17 -3 -10 -24 -47 -45 -82 l-39 -63 -47 81 c-38 65 -51 81
-70 81 -13 0 -26 -3 -28 -7z"/>
<path d="M6964 3436 c-38 -17 -71 -68 -79 -121 -8 -52 27 -122 74 -149 100
-58 231 18 231 133 0 114 -116 185 -226 137z m133 -70 c39 -33 38 -99 -1 -133
-58 -50 -146 -8 -146 70 0 37 6 47 40 70 34 24 74 21 107 -7z"/>
<path d="M7216 3442 c-4 -7 -3 -66 3 -254 1 -35 3 -38 31 -38 l29 0 3 83 3 82
63 -82 c62 -82 93 -101 106 -67 3 9 6 76 6 150 l0 134 -36 0 -37 0 5 -90 c3
-49 5 -90 4 -90 -1 0 -22 27 -46 61 -76 102 -91 119 -110 119 -10 0 -21 -4
-24 -8z"/>
<path d="M7490 3300 l0 -153 79 5 c93 5 122 20 152 80 33 65 14 149 -43 191
-20 15 -48 21 -108 25 l-80 5 0 -153z m135 76 c78 -33 49 -166 -36 -166 -33 0
-39 14 -39 90 0 94 9 103 75 76z"/>
<path d="M7831 3432 c-55 -27 -75 -63 -76 -132 0 -63 16 -95 68 -134 35 -26
114 -26 159 1 137 80 82 283 -77 283 -22 0 -55 -8 -74 -18z m119 -59 c35 -24
40 -33 40 -76 0 -82 -92 -118 -144 -56 -42 49 -33 109 19 137 29 16 57 14 85
-5z"/>
<path d="M4559 3427 c-62 -41 -87 -132 -54 -196 27 -52 71 -81 125 -81 62 0
96 13 105 40 11 34 -7 43 -53 29 -53 -15 -88 -5 -107 31 -22 44 -19 87 10 115
28 29 61 32 94 8 23 -16 25 -15 43 6 24 30 23 34 -11 54 -42 25 -111 22 -152
-6z"/>
<path d="M4863 3438 c-15 -20 -105 -241 -106 -263 -3 -29 40 -29 60 1 13 20
24 24 68 24 44 0 54 -3 58 -20 5 -21 53 -38 67 -24 4 5 -16 65 -45 134 -72
167 -79 178 -102 148z"/>
<path d="M5064 3438 c-23 -11 -44 -48 -44 -78 0 -29 47 -78 83 -85 55 -12 69
-32 42 -58 -13 -13 -21 -13 -59 -2 -38 12 -46 12 -56 -1 -28 -33 17 -64 96
-64 121 0 128 143 9 183 -29 10 -41 20 -43 36 -3 22 -1 23 55 19 52 -3 58 -1
61 18 5 37 -90 59 -144 32z"/>
<path d="M5278 3430 c-23 -17 -28 -29 -28 -64 0 -51 17 -69 83 -92 47 -16 55
-27 38 -53 -9 -14 -41 -12 -98 5 -18 5 -23 1 -29 -21 -8 -32 4 -42 63 -51 82
-12 133 19 133 82 0 52 -13 69 -75 94 -41 17 -55 27 -55 42 0 18 5 20 38 15
20 -3 45 -8 54 -12 13 -5 19 0 24 20 9 36 -6 48 -68 53 -43 3 -58 0 -80 -18z"/>
<path d="M5470 3306 l0 -146 34 0 33 0 1 140 c1 130 0 140 -18 140 -10 0 -25
3 -34 6 -14 5 -16 -11 -16 -140z"/>
<path d="M5595 3425 c-18 -17 -25 -35 -25 -63 0 -46 15 -62 83 -91 36 -15 48
-26 45 -38 -3 -15 -13 -18 -65 -15 -45 2 -62 -1 -66 -12 -9 -24 17 -47 60 -53
84 -11 133 21 133 85 0 47 -22 72 -84 96 -33 13 -46 23 -44 35 4 20 49 26 79
11 17 -10 23 -9 30 1 25 40 -10 69 -82 69 -29 0 -47 -7 -64 -25z"/>
<path d="M5872 3413 c-24 -47 -88 -200 -97 -230 -7 -26 8 -37 41 -29 15 4 24
14 24 26 0 18 7 20 55 20 50 0 56 -2 65 -25 7 -19 17 -25 40 -25 19 0 30 5 30
14 0 16 -98 256 -112 274 -17 20 -26 14 -46 -25z"/>
<path d="M2595 1986 c-334 -26 -336 -26 -362 -52 -28 -28 -29 -44 -5 -75 l19
-22 189 19 c146 15 264 19 519 19 314 -1 337 -2 478 -28 264 -48 432 -96 652
-189 128 -54 137 -54 165 -5 27 48 -10 77 -187 147 -193 76 -459 143 -693 175
-158 22 -562 27 -775 11z"/>
<path d="M7160 1994 c-364 -33 -617 -90 -927 -210 -51 -20 -104 -45 -118 -56
-32 -25 -34 -76 -4 -101 19 -17 25 -16 182 47 253 101 479 159 747 192 167 20
607 15 830 -10 80 -10 154 -15 166 -12 11 3 26 17 33 32 10 22 9 31 -4 50 -8
13 -25 26 -38 29 -108 24 -725 52 -867 39z"/>
<path d="M4995 1243 c-138 -29 -215 -83 -215 -149 0 -160 441 -234 681 -113
171 86 114 215 -116 264 -88 19 -259 18 -350 -2z"/>
</g>
</svg>
